<svg width="2063" height="1216" viewBox="0 0 2063 1216" fill="none" xmlns="http://www.w3.org/2000/svg">
<path d="M2063 1017V1017C2019.58 1017 1977.41 1031.5 1943.17 1058.21L1853.4 1128.22C1828.99 1147.26 1801.45 1161.91 1772.01 1171.52V1171.52C1661.83 1207.48 1541.02 1168.25 1472.98 1074.42L1295.22 829.279C1227.09 735.324 1095.29 715.215 1002.24 784.578V784.578C899.43 861.22 752.439 827.589 693.179 713.866L605.657 545.907C564.258 466.46 464.816 437.802 387.487 483.033V483.033C285.66 542.593 157.012 472.583 151.731 354.735L147.57 261.9C145.92 225.093 134.746 189.345 115.14 158.152L26.1624 16.5898" stroke="#2C2C2C" stroke-width="61"/>
</svg>
