<svg width="2130" height="1195" viewBox="0 0 2130 1195" fill="none" xmlns="http://www.w3.org/2000/svg">
<path d="M2129.05 1007.83V1007.83C2061.12 1007.83 1996.6 1037.58 1952.49 1089.24L1947.51 1095.07C1924.76 1121.72 1896.64 1143.27 1864.98 1158.29L1847.57 1166.55C1721.82 1226.23 1571.41 1187.8 1489.7 1075.12L1325.93 849.294C1254.82 751.223 1117.24 730.233 1020.12 802.634V802.634C912.799 882.633 759.368 847.529 697.51 728.824L606.15 553.505C562.936 470.578 459.137 440.665 378.419 487.876V487.876C272.129 550.045 137.845 476.967 132.33 353.955L127.987 257.057C126.264 218.637 114.6 181.322 94.1337 148.762L1.25647 1" stroke="#FE0000"/>
</svg>
